<svg width="50" height="700" viewBox="0 0 50 700" fill="none" xmlns="http://www.w3.org/2000/svg">
<g opacity="0.4">
<path d="M50 681.259V689.589C50 690.141 49.7805 690.67 49.3898 691.061C48.9991 691.451 48.4692 691.671 47.9167 691.671C47.3641 691.671 46.8342 691.451 46.4435 691.061C46.0528 690.67 45.8333 690.141 45.8333 689.589C45.8333 689.589 46.0833 687.506 41.6667 687.506H37.5V697.918C37.5 698.47 37.2805 699 36.8898 699.39C36.4991 699.781 35.9692 700 35.4167 700H2.08333C1.5308 700 1.0009 699.781 0.610195 699.39C0.219494 699 0 698.47 0 697.918V681.259C0 680.707 0.219494 680.178 0.610195 679.787C1.0009 679.397 1.5308 679.177 2.08333 679.177H35.4167C35.9692 679.177 36.4991 679.397 36.8898 679.787C37.2805 680.178 37.5 680.707 37.5 681.259V683.342H41.6667C46.0833 683.342 45.8333 681.259 45.8333 681.259C45.8333 680.707 46.0528 680.178 46.4435 679.787C46.8342 679.397 47.3641 679.177 47.9167 679.177C48.4692 679.177 48.9991 679.397 49.3898 679.787C49.7805 680.178 50 680.707 50 681.259V681.259ZM8.33333 662.519C6.1232 662.519 4.00358 663.396 2.44078 664.958C0.877973 666.52 0 668.639 0 670.848C0 673.057 0.877973 675.176 2.44078 676.738C4.00358 678.3 6.1232 679.177 8.33333 679.177C10.5435 679.177 12.6631 678.3 14.2259 676.738C15.7887 675.176 16.6667 673.057 16.6667 670.848C16.6667 668.639 15.7887 666.52 14.2259 664.958C12.6631 663.396 10.5435 662.519 8.33333 662.519ZM8.33333 675.013C7.22826 675.013 6.16846 674.574 5.38705 673.793C4.60565 673.012 4.16667 671.953 4.16667 670.848C4.16667 669.743 4.60565 668.684 5.38705 667.903C6.16846 667.122 7.22826 666.683 8.33333 666.683C9.4384 666.683 10.4982 667.122 11.2796 667.903C12.061 668.684 12.5 669.743 12.5 670.848C12.5 671.953 12.061 673.012 11.2796 673.793C10.4982 674.574 9.4384 675.013 8.33333 675.013ZM27.0833 658.354C24.3207 658.354 21.6711 659.451 19.7176 661.404C17.7641 663.356 16.6667 666.004 16.6667 668.766C16.6667 671.527 17.7641 674.175 19.7176 676.128C21.6711 678.08 24.3207 679.177 27.0833 679.177C29.846 679.177 32.4955 678.08 34.449 676.128C36.4025 674.175 37.5 671.527 37.5 668.766C37.5 666.004 36.4025 663.356 34.449 661.404C32.4955 659.451 29.846 658.354 27.0833 658.354V658.354ZM27.0833 675.013C25.4257 675.013 23.836 674.354 22.6639 673.183C21.4918 672.011 20.8333 670.422 20.8333 668.766C20.8333 667.109 21.4918 665.52 22.6639 664.349C23.836 663.177 25.4257 662.519 27.0833 662.519C28.7409 662.519 30.3306 663.177 31.5028 664.349C32.6749 665.52 33.3333 667.109 33.3333 668.766C33.3333 670.422 32.6749 672.011 31.5028 673.183C30.3306 674.354 28.7409 675.013 27.0833 675.013Z" fill="white"/>
<path d="M21.5909 525.478L30.6364 520.299C32.1591 519.436 32.1591 517.232 30.6364 516.346L21.5909 511.167C20.0682 510.304 18.1818 511.417 18.1818 513.143V523.479C18.1818 525.228 20.0682 526.341 21.5909 525.478ZM45.4545 500.15H28.2045L34.8864 493.472C35.3409 493.017 35.3409 492.313 34.8864 491.859C34.4318 491.404 33.7273 491.404 33.2727 491.859L25 500.127L16.7273 491.859C16.2727 491.404 15.5682 491.404 15.1136 491.859C14.6591 492.313 14.6591 493.017 15.1136 493.472L21.7955 500.15H4.54545C3.33992 500.15 2.18377 500.629 1.33133 501.481C0.478895 502.333 0 503.488 0 504.693V531.952C0 534.451 2.04545 536.495 4.54545 536.495H45.4545C47.9545 536.495 50 534.451 50 531.952V504.693C50 503.488 49.5211 502.333 48.6687 501.481C47.8162 500.629 46.6601 500.15 45.4545 500.15V500.15ZM43.1818 531.952H6.81818C5.56818 531.952 4.54545 530.93 4.54545 529.681V506.965C4.54545 505.715 5.56818 504.693 6.81818 504.693H43.1818C44.4318 504.693 45.4545 505.715 45.4545 506.965V529.681C45.4545 530.93 44.4318 531.952 43.1818 531.952Z" fill="white"/>
<path d="M3.75 322.686H7.5V319.687C7.5 318.588 8.4 317.688 9.5 317.688H20.5C21.6 317.688 22.5 318.588 22.5 319.687V322.686H26.25C27.2446 322.686 28.1984 323.081 28.9017 323.784C29.6049 324.487 30 325.44 30 326.434V327.683H50V365.164H30V366.414C30 367.408 29.6049 368.361 28.9017 369.064C28.1984 369.767 27.2446 370.162 26.25 370.162H3.75C2.75544 370.162 1.80161 369.767 1.09835 369.064C0.395088 368.361 0 367.408 0 366.414V326.434C0 325.44 0.395088 324.487 1.09835 323.784C1.80161 323.081 2.75544 322.686 3.75 322.686V322.686ZM40 332.681V337.678H45V332.681H40ZM30 332.681V337.678H35V332.681H30ZM20 332.681V337.678H25V332.681H20ZM30 355.17V360.167H35V355.17H30ZM40 355.17V360.167H45V355.17H40ZM20 355.17V360.167H25V355.17H20Z" fill="white"/>
<path d="M32.5 196.807L27.5 191.812H22.5L17.5 196.807H12.5C11.1739 196.807 9.90215 196.281 8.96447 195.344C8.02678 194.407 7.5 193.137 7.5 191.812V176.827C7.5 175.502 8.02678 174.231 8.96447 173.295C9.90215 172.358 11.1739 171.831 12.5 171.831H37.5C38.8261 171.831 40.0979 172.358 41.0355 173.295C41.9732 174.231 42.5 175.502 42.5 176.827V191.812C42.5 193.137 41.9732 194.407 41.0355 195.344C40.0979 196.281 38.8261 196.807 37.5 196.807H32.5ZM50 189.314C50 189.977 49.7366 190.612 49.2678 191.08C48.7989 191.549 48.163 191.812 47.5 191.812C46.837 191.812 46.2011 191.549 45.7322 191.08C45.2634 190.612 45 189.977 45 189.314V179.324C45 178.662 45.2634 178.026 45.7322 177.558C46.2011 177.09 46.837 176.827 47.5 176.827C48.163 176.827 48.7989 177.09 49.2678 177.558C49.7366 178.026 50 178.662 50 179.324V189.314ZM5 189.314C5 189.977 4.73661 190.612 4.26777 191.08C3.79893 191.549 3.16304 191.812 2.5 191.812C1.83696 191.812 1.20107 191.549 0.732233 191.08C0.263392 190.612 0 189.977 0 189.314V179.324C0 178.662 0.263392 178.026 0.732233 177.558C1.20107 177.09 1.83696 176.827 2.5 176.827C3.16304 176.827 3.79893 177.09 4.26777 177.558C4.73661 178.026 5 178.662 5 179.324V189.314Z" fill="white"/>
<path d="M49.9496 16.2917L44.8742 47.5092C44.7766 48.1921 44.3699 48.7693 43.6542 49.2408C42.9384 49.7123 42.1413 49.9481 41.2629 49.9481H9.15112C8.27268 49.9481 7.47558 49.7123 6.75982 49.2408C6.04406 48.7693 5.62111 48.1921 5.49097 47.5092L0.0739425 16.2917C-0.088731 15.4462 0.0170068 14.682 0.391156 13.9991C0.765305 13.3162 1.3428 12.8122 2.12363 12.487C4.59626 13.5926 8.50043 14.4381 13.8361 15.0235C12.9902 14.4056 12.5673 13.5601 12.5673 12.487C12.5673 11.6416 12.8682 10.9099 13.4701 10.292C14.072 9.67419 14.804 9.36527 15.6662 9.36527C16.5284 9.36527 17.2685 9.67419 17.8867 10.292C18.5048 10.9099 18.8139 11.6416 18.8139 12.487C18.8139 13.1049 18.6513 13.6658 18.3259 14.1698C18.0006 14.6739 17.5613 15.056 17.0082 15.3161C19.7086 15.5112 22.3927 15.6088 25.0606 15.6088C26.6548 15.6088 28.4279 15.56 30.38 15.4625C29.7293 15.2673 29.2006 14.9015 28.7939 14.365C28.3873 13.8284 28.1839 13.2024 28.1839 12.487C28.1839 11.6416 28.4849 10.9099 29.0868 10.292C29.6886 9.67419 30.4207 9.36527 31.2828 9.36527C32.145 9.36527 32.8852 9.67419 33.5033 10.292C34.1215 10.9099 34.4306 11.6416 34.4306 12.487C34.4306 13.1374 34.2516 13.7146 33.8938 14.2186C33.5359 14.7227 33.0804 15.1047 32.5273 15.3649C39.5548 14.8771 44.679 13.9178 47.8999 12.487C48.6482 12.8122 49.2095 13.3162 49.5836 13.9991C49.9578 14.682 50.0798 15.4462 49.9496 16.2917ZM18.8627 18.5354C15.414 18.3403 12.3395 18.0151 9.63914 17.5599L12.7625 46.8263H20.0828L18.8627 18.5354ZM31.2096 18.5354L30.136 46.8263H37.5539L40.5308 17.5599C37.7654 18.0151 34.6583 18.3403 31.2096 18.5354ZM43.7762 12.487C42.914 12.487 42.1738 12.1862 41.5557 11.5846C40.9375 10.9831 40.6284 10.2514 40.6284 9.38966C40.6284 8.52792 40.9375 7.78813 41.5557 7.17028C42.1738 6.55244 42.914 6.24351 43.7762 6.24351C44.6383 6.24351 45.3704 6.55244 45.9723 7.17028C46.5741 7.78813 46.8751 8.52792 46.8751 9.38966C46.8751 10.2514 46.5741 10.9831 45.9723 11.5846C45.3704 12.1862 44.6383 12.487 43.7762 12.487ZM34.4062 9.36527C33.544 9.36527 32.812 9.06448 32.2101 8.46289C31.6082 7.8613 31.3072 7.12964 31.3072 6.2679C31.3072 5.40617 31.6082 4.66638 32.2101 4.04853C32.812 3.43068 33.544 3.12176 34.4062 3.12176C35.2683 3.12176 36.0004 3.43068 36.6023 4.04853C37.2042 4.66638 37.5051 5.40617 37.5051 6.2679C37.5051 7.12964 37.2042 7.8613 36.6023 8.46289C36.0004 9.06448 35.2683 9.36527 34.4062 9.36527ZM25.0362 6.24351C24.174 6.24351 23.442 5.94272 22.8401 5.34113C22.2382 4.73954 21.9373 4.00788 21.9373 3.14615C21.9373 2.28441 22.2382 1.54462 22.8401 0.926771C23.442 0.308924 24.174 0 25.0362 0C25.8984 0 26.6385 0.308924 27.2567 0.926771C27.8748 1.54462 28.1839 2.28441 28.1839 3.14615C28.1839 4.00788 27.8748 4.73954 27.2567 5.34113C26.6385 5.94272 25.8984 6.24351 25.0362 6.24351ZM25.0606 9.38966C25.0606 10.2514 24.7515 10.9831 24.1333 11.5846C23.5152 12.1862 22.775 12.487 21.9129 12.487C21.0507 12.487 20.3187 12.1862 19.7168 11.5846C19.1149 10.9831 18.8139 10.2514 18.8139 9.38966C18.8139 8.52792 19.1149 7.78813 19.7168 7.17028C20.3187 6.55244 21.0507 6.24351 21.9129 6.24351C22.775 6.24351 23.5152 6.55244 24.1333 7.17028C24.7515 7.78813 25.0606 8.52792 25.0606 9.38966ZM15.6662 6.24351C14.804 6.24351 14.072 5.94272 13.4701 5.34113C12.8682 4.73954 12.5673 4.00788 12.5673 3.14615C12.5673 2.28441 12.8682 1.54462 13.4701 0.926771C14.072 0.308924 14.804 0 15.6662 0C16.5284 0 17.2685 0.308924 17.8867 0.926771C18.5048 1.54462 18.8139 2.28441 18.8139 3.14615C18.8139 4.00788 18.5048 4.73954 17.8867 5.34113C17.2685 5.94272 16.5284 6.24351 15.6662 6.24351ZM6.2962 12.487C5.43403 12.487 4.702 12.1862 4.10011 11.5846C3.49822 10.9831 3.19727 10.2514 3.19727 9.38966C3.19727 8.52792 3.49822 7.78813 4.10011 7.17028C4.702 6.55244 5.43403 6.24351 6.2962 6.24351C7.15837 6.24351 7.89854 6.55244 8.51669 7.17028C9.13485 7.78813 9.44393 8.52792 9.44393 9.38966C9.44393 10.2514 9.13485 10.9831 8.51669 11.5846C7.89854 12.1862 7.15837 12.487 6.2962 12.487Z" fill="white"/>
</g>
</svg>
