<svg width="602" height="101" viewBox="0 0 602 101" fill="none" xmlns="http://www.w3.org/2000/svg">
<path d="M10.8551 81H30.6551L41.5551 26.7H62.9551L66.1551 11H3.45508L0.255078 26.7H21.7551L10.8551 81ZM93.3316 25.9C87.8316 25.9 82.2316 27.6 77.5316 31.3L82.4316 6.8H63.4316L48.6316 81H67.6316L73.0316 54.2C74.7316 45.9 79.2316 42 85.7316 42C90.8316 42 93.2316 44.5 93.2316 49.2C93.2316 50.3 93.1316 51.5 92.8316 52.8L87.2316 81H106.232L112.232 51C112.732 48.7 112.932 46.5 112.932 44.5C112.932 32.2 104.732 25.9 93.3316 25.9ZM170.342 49.7C170.342 35.5 160.142 25.9 143.642 25.9C124.142 25.9 110.842 39.2 110.842 57.2C110.842 72.3 122.242 81.9 139.642 81.9C147.842 81.9 155.942 79.9 162.742 74.9L154.842 63C151.242 65.9 146.542 67.4 141.742 67.4C134.242 67.4 130.142 64.6 129.442 58.6H169.242C169.842 55.9 170.342 52.9 170.342 49.7ZM142.742 39.4C148.842 39.4 152.942 42.8 152.842 48.6H130.542C132.342 43.2 136.342 39.4 142.742 39.4ZM208.913 82.4C229.413 82.4 242.613 72.5 242.613 57.5C242.613 35.9 208.513 41.4 208.613 31.8C208.613 28 213.013 25 221.213 25C228.113 25 234.913 26.8 240.413 30.3L247.613 15.6C241.313 11.7 232.313 9.6 222.413 9.6C201.713 9.6 188.813 19.5 188.813 34.6C188.813 56.6 222.813 51.4 222.813 60.8C222.813 64.6 218.413 67 210.813 67C202.813 67 194.613 64.6 187.513 60.1L179.713 74.9C186.013 79.2 196.913 82.4 208.913 82.4ZM281.359 25.9C275.859 25.9 270.259 27.6 265.559 31.3L270.459 6.8H251.459L236.659 81H255.659L261.059 54.2C262.759 45.9 267.259 42 273.759 42C278.859 42 281.259 44.5 281.259 49.2C281.259 50.3 281.159 51.5 280.859 52.8L275.259 81H294.259L300.259 51C300.759 48.7 300.959 46.5 300.959 44.5C300.959 32.2 292.759 25.9 281.359 25.9ZM327.169 81.9C346.569 81.9 360.469 68.5 360.469 50.5C360.469 35.6 349.369 25.9 332.069 25.9C312.669 25.9 298.769 39.3 298.769 57.2C298.769 72.1 309.869 81.9 327.169 81.9ZM328.269 66.6C321.769 66.6 318.069 62.6 318.069 56.3C318.069 47.2 323.369 41.1 330.969 41.1C337.469 41.1 341.169 45.2 341.169 51.5C341.169 60.5 335.869 66.6 328.269 66.6ZM396.973 25.9C390.673 25.9 385.473 28 381.273 31.9L382.373 26.8H364.373L349.673 100.4H368.673L373.873 74.5C377.273 79.7 383.173 81.9 390.473 81.9C406.673 81.9 419.873 68.6 419.873 50.5C419.873 34.8 408.673 25.9 396.973 25.9ZM387.773 66.6C381.273 66.6 377.473 62.6 377.473 56.3C377.473 47.2 382.873 41.1 390.373 41.1C396.873 41.1 400.673 45.2 400.673 51.5C400.673 60.5 395.273 66.6 387.773 66.6ZM456.504 25.9C450.204 25.9 445.004 28 440.804 31.9L441.904 26.8H423.904L409.204 100.4H428.204L433.404 74.5C436.804 79.7 442.704 81.9 450.004 81.9C466.204 81.9 479.404 68.6 479.404 50.5C479.404 34.8 468.204 25.9 456.504 25.9ZM447.304 66.6C440.804 66.6 437.004 62.6 437.004 56.3C437.004 47.2 442.404 41.1 449.904 41.1C456.404 41.1 460.204 45.2 460.204 51.5C460.204 60.5 454.804 66.6 447.304 66.6ZM495.536 20.8C502.936 20.8 507.836 16.2 507.836 9.69999C507.836 4.5 503.536 0.599998 496.836 0.599998C489.436 0.599998 484.636 5.3 484.636 11.4C484.636 16.6 488.836 20.8 495.536 20.8ZM472.636 81H491.536L502.336 26.8H483.436L472.636 81ZM555.088 49.7C555.088 35.5 544.888 25.9 528.388 25.9C508.888 25.9 495.588 39.2 495.588 57.2C495.588 72.3 506.988 81.9 524.388 81.9C532.588 81.9 540.688 79.9 547.488 74.9L539.588 63C535.988 65.9 531.288 67.4 526.488 67.4C518.988 67.4 514.888 64.6 514.188 58.6H553.988C554.588 55.9 555.088 52.9 555.088 49.7ZM527.488 39.4C533.588 39.4 537.688 42.8 537.588 48.6H515.288C517.088 43.2 521.088 39.4 527.488 39.4ZM568.757 81.9C584.857 81.9 597.557 75.3 597.557 62.3C597.557 44.2 569.557 50 569.557 43.5C569.557 41.3 572.057 39.4 578.257 39.4C583.057 39.4 589.057 40.3 594.357 43.5L601.057 30.2C595.757 27.5 588.157 25.9 580.457 25.9C564.057 25.9 551.557 32.6 551.557 45.6C551.557 63.9 579.657 58.2 579.657 64.4C579.657 66.8 577.157 68.3 570.957 68.3C564.557 68.3 557.157 66.5 552.157 63.3L545.257 76.6C549.957 79.6 559.157 81.9 568.757 81.9Z" fill="white"/>
</svg>
