<svg width="354" height="82" viewBox="0 0 354 82" fill="none" xmlns="http://www.w3.org/2000/svg">
<path d="M96.1711 11L82.3711 81H64.0711L71.2711 44.1L47.9711 74.1H39.2711L26.5711 44.1L19.1711 81H0.971094L14.9711 11H31.0711L47.4711 51.5L79.2711 11H96.1711ZM115.581 81.9C109.848 81.9 104.848 80.9 100.581 78.9C96.3146 76.8333 93.0146 73.9333 90.6813 70.2C88.3479 66.4667 87.1813 62.1333 87.1813 57.2C87.1813 51.2667 88.6146 45.9333 91.4813 41.2C94.3479 36.4667 98.3146 32.7333 103.381 30C108.448 27.2667 114.148 25.9 120.481 25.9C126.215 25.9 131.215 26.9333 135.481 29C139.748 31 143.048 33.8667 145.381 37.6C147.715 41.2667 148.881 45.5667 148.881 50.5C148.881 56.4333 147.448 61.8 144.581 66.6C141.715 71.3333 137.748 75.0667 132.681 77.8C127.681 80.5333 121.981 81.9 115.581 81.9ZM116.681 66.6C120.481 66.6 123.581 65.2 125.981 62.4C128.381 59.6 129.581 55.9667 129.581 51.5C129.581 48.3 128.681 45.7667 126.881 43.9C125.081 42.0333 122.581 41.1 119.381 41.1C115.581 41.1 112.481 42.5 110.081 45.3C107.681 48.1 106.481 51.7667 106.481 56.3C106.481 59.5 107.381 62.0333 109.181 63.9C110.981 65.7 113.481 66.6 116.681 66.6ZM172.085 81.9C166.352 81.9 161.352 80.9 157.085 78.9C152.818 76.8333 149.518 73.9333 147.185 70.2C144.852 66.4667 143.685 62.1333 143.685 57.2C143.685 51.2667 145.118 45.9333 147.985 41.2C150.852 36.4667 154.818 32.7333 159.885 30C164.952 27.2667 170.652 25.9 176.985 25.9C182.718 25.9 187.718 26.9333 191.985 29C196.252 31 199.552 33.8667 201.885 37.6C204.218 41.2667 205.385 45.5667 205.385 50.5C205.385 56.4333 203.952 61.8 201.085 66.6C198.218 71.3333 194.252 75.0667 189.185 77.8C184.185 80.5333 178.485 81.9 172.085 81.9ZM173.185 66.6C176.985 66.6 180.085 65.2 182.485 62.4C184.885 59.6 186.085 55.9667 186.085 51.5C186.085 48.3 185.185 45.7667 183.385 43.9C181.585 42.0333 179.085 41.1 175.885 41.1C172.085 41.1 168.985 42.5 166.585 45.3C164.185 48.1 162.985 51.7667 162.985 56.3C162.985 59.5 163.885 62.0333 165.685 63.9C167.485 65.7 169.985 66.6 173.185 66.6ZM205.366 45.2H234.466L231.566 59.8H202.466L205.366 45.2ZM294.377 26.8L261.277 81H241.577L230.077 26.8H248.877L255.477 60L275.577 26.8H294.377ZM289.289 26.8H308.189L297.389 81H278.489L289.289 26.8ZM301.389 20.8C298.122 20.8 295.489 19.9 293.489 18.1C291.489 16.3 290.489 14.0667 290.489 11.4C290.489 8.26666 291.589 5.7 293.789 3.69999C296.056 1.63333 299.022 0.599998 302.689 0.599998C306.022 0.599998 308.689 1.46666 310.689 3.19999C312.689 4.86666 313.689 7.03333 313.689 9.69999C313.689 12.9667 312.556 15.6333 310.289 17.7C308.022 19.7667 305.056 20.8 301.389 20.8ZM320.841 81.9C316.175 81.9 311.675 81.4 307.341 80.4C303.075 79.4 299.741 78.1333 297.341 76.6L304.241 63.3C306.708 64.8333 309.641 66.0667 313.041 67C316.441 67.8667 319.775 68.3 323.041 68.3C328.841 68.3 331.741 67 331.741 64.4C331.741 63.3333 331.041 62.5667 329.641 62.1C328.308 61.5667 326.141 61.0667 323.141 60.6C319.141 59.8667 315.841 59.1 313.241 58.3C310.708 57.4333 308.475 56 306.541 54C304.608 52 303.641 49.2 303.641 45.6C303.641 39.3333 306.308 34.5 311.641 31.1C317.041 27.6333 324.008 25.9 332.541 25.9C336.408 25.9 340.141 26.3 343.741 27.1C347.341 27.8333 350.475 28.8667 353.141 30.2L346.441 43.5C341.908 40.7667 336.541 39.4 330.341 39.4C327.408 39.4 325.208 39.8 323.741 40.6C322.341 41.3333 321.641 42.3 321.641 43.5C321.641 44.5667 322.308 45.3667 323.641 45.9C325.041 46.3667 327.308 46.9 330.441 47.5C334.308 48.1667 337.508 48.9333 340.041 49.8C342.641 50.6667 344.875 52.1 346.741 54.1C348.675 56.1 349.641 58.8333 349.641 62.3C349.641 68.5667 346.941 73.4 341.541 76.8C336.141 80.2 329.241 81.9 320.841 81.9Z" fill="white"/>
</svg>
