<svg width="50" height="700" viewBox="0 0 50 700" fill="none" xmlns="http://www.w3.org/2000/svg">
<path opacity="0.4" d="M48.75 660H40L44.35 666.525C44.625 666.95 44.325 667.5 43.825 667.5H38.825C38 667.5 37.2 667.075 36.75 666.375L32.5 660H27.5L31.85 666.525C32.125 666.95 31.825 667.5 31.325 667.5H26.325C25.5 667.5 24.7 667.075 24.25 666.375L20 660H15L19.35 666.525C19.625 666.95 19.325 667.5 18.825 667.5H13.825C13 667.5 12.225 667.075 11.75 666.375L7.5 660H5C2.25 660 0.025 662.25 0.025 665L0 695C0 697.75 2.25 700 5 700H45C47.75 700 50 697.75 50 695V661.25C50 660.55 49.45 660 48.75 660ZM23.125 688.125L20 695L16.875 688.125L10 685L16.875 681.875L20 675L23.125 681.875L30 685L23.125 688.125ZM37.35 679.85L35 685L32.65 679.85L27.5 677.5L32.65 675.15L35 670L37.35 675.15L42.5 677.5L37.35 679.85Z" fill="white"/>
<path opacity="0.4" d="M50 514.97V535.766C49.9993 536.133 49.9025 536.493 49.7191 536.81C49.5357 537.127 49.2722 537.391 48.9549 537.574C48.6377 537.758 48.2779 537.855 47.9114 537.855C47.5449 537.856 47.1847 537.761 46.8668 537.578L38.2043 532.582V534.005C38.204 536.061 37.3872 538.032 35.9336 539.486C34.4799 540.939 32.5084 541.756 30.4526 541.756H7.75166C5.69588 541.756 3.72438 540.939 2.27072 539.486C0.817065 538.032 0.000284124 536.061 0 534.005L0 516.753C-1.96385e-08 514.697 0.816656 512.725 2.27034 511.271C3.72403 509.817 5.69569 509 7.75166 509H30.4633C32.5191 509 34.4906 509.817 35.9443 511.271C37.3979 512.724 38.2147 514.696 38.215 516.752V518.175L46.8775 513.179C47.1927 512.995 47.551 512.897 47.9162 512.895C48.2814 512.893 48.6406 512.988 48.9574 513.17C49.2743 513.351 49.5375 513.614 49.7206 513.93C49.9037 514.246 50 514.604 50 514.97Z" fill="white"/>
<path opacity="0.4" d="M25 340C28.283 340 31.5339 340.647 34.5671 341.903C37.6002 343.159 40.3562 345.001 42.6777 347.322C44.9991 349.644 46.8406 352.4 48.097 355.433C49.3534 358.466 50 361.717 50 365C50 371.63 47.3661 377.989 42.6777 382.678C37.9893 387.366 31.6304 390 25 390C21.717 390 18.4661 389.353 15.4329 388.097C12.3998 386.841 9.6438 384.999 7.32233 382.678C2.63392 377.989 0 371.63 0 365C0 358.37 2.63392 352.011 7.32233 347.322C12.0107 342.634 18.3696 340 25 340V340ZM25 345C23.3424 345 21.7527 345.658 20.5806 346.831C19.4085 348.003 18.75 349.592 18.75 351.25C18.75 352.908 19.4085 354.497 20.5806 355.669C21.7527 356.842 23.3424 357.5 25 357.5C26.6576 357.5 28.2473 356.842 29.4194 355.669C30.5915 354.497 31.25 352.908 31.25 351.25C31.25 349.592 30.5915 348.003 29.4194 346.831C28.2473 345.658 26.6576 345 25 345V345ZM6 358.825C5.48736 360.4 5.62066 362.114 6.37065 363.59C7.12063 365.067 8.42597 366.185 10 366.7C13.3 367.75 16.825 365.975 17.875 362.675C18.3876 361.1 18.2543 359.386 17.5044 357.91C16.7544 356.433 15.449 355.315 13.875 354.8C10.6 353.75 7.05 355.525 6 358.825ZM44.025 358.75C42.95 355.525 39.425 353.75 36.15 354.8C35.3663 355.049 34.6397 355.451 34.0123 355.983C33.385 356.515 32.8692 357.166 32.4949 357.898C32.1207 358.63 31.8953 359.43 31.8318 360.249C31.7683 361.069 31.8679 361.894 32.125 362.675C32.6398 364.249 33.7584 365.554 35.2349 366.304C36.7114 367.054 38.4253 367.188 40 366.675C43.275 365.625 45.075 362.075 44.025 358.75ZM13.275 381.15C16.05 383.2 20 382.575 22 379.775C24.025 376.975 23.4 373.075 20.6 371.05C19.2589 370.08 17.5887 369.681 15.954 369.938C14.3193 370.196 12.8529 371.09 11.875 372.425C9.85 375.225 10.475 379.125 13.275 381.15ZM36.75 381.15C39.55 379.125 40.175 375.225 38.15 372.425C37.6696 371.759 37.062 371.195 36.3625 370.765C35.6629 370.335 34.8851 370.048 34.0739 369.92C33.2628 369.792 32.4344 369.826 31.6365 370.02C30.8386 370.214 30.0869 370.564 29.425 371.05C28.7595 371.53 28.1954 372.137 27.7648 372.836C27.3342 373.535 27.0456 374.312 26.9156 375.122C26.7855 375.933 26.8166 376.761 27.007 377.559C27.1973 378.357 27.5433 379.11 28.025 379.775C30 382.575 33.975 383.175 36.75 381.15V381.15ZM25 361.25C24.0054 361.25 23.0516 361.645 22.3483 362.348C21.6451 363.052 21.25 364.005 21.25 365C21.25 365.995 21.6451 366.948 22.3483 367.652C23.0516 368.355 24.0054 368.75 25 368.75C25.9946 368.75 26.9484 368.355 27.6517 367.652C28.3549 366.948 28.75 365.995 28.75 365C28.75 364.005 28.3549 363.052 27.6517 362.348C26.9484 361.645 25.9946 361.25 25 361.25Z" fill="white"/>
<g opacity="0.4">
<path fill-rule="evenodd" clip-rule="evenodd" d="M0 220.667H50L49.7233 174H0V220.667ZM33.3333 177.333H36.6667V180.667H33.3333V177.333ZM43.3333 184V210.667H6.66667V184H43.3333ZM23.3333 177.333H26.6667V180.667H23.3333V177.333ZM13.3333 177.333H16.6667V180.667H13.3333V177.333ZM3.33333 177.333H6.66667V180.667H3.33333V177.333ZM6.59667 217.333H3.26333V214H6.59667V217.333ZM16.6667 217.333H13.3333V214H16.6667V217.333ZM26.6667 217.333H23.3333V214H26.6667V217.333ZM36.6667 217.333H33.3333V214H36.6667V217.333ZM46.6667 217.333H43.3333V214H46.6667V217.333ZM46.6667 180.667H43.3333V177.333H46.6667V180.667Z" fill="white"/>
<path fill-rule="evenodd" clip-rule="evenodd" d="M20.01 203.55L20 190.667L33.1633 197.383L20.01 203.55Z" fill="white"/>
</g>
<path opacity="0.4" d="M31.25 6.25V50H18.75V6.25H31.25ZM50 0H43.75V6.25H37.5V0H12.5V6.25H6.25V0H0V56.25H6.25V50H12.5V56.25H37.5V50H43.75V56.25H50V0ZM37.5 18.75V12.5H43.75V18.75H37.5ZM6.25 18.75V12.5H12.5V18.75H6.25ZM37.5 31.25V25H43.75V31.25H37.5ZM6.25 31.25V25H12.5V31.25H6.25ZM37.5 43.75V37.5H43.75V43.75H37.5ZM6.25 43.75V37.5H12.5V43.75H6.25Z" fill="white"/>
</svg>
